<?xml version="1.0" encoding="UTF-8"?>
<svg id="Layer_2" data-name="Layer 2" xmlns="http://www.w3.org/2000/svg" viewBox="0 0 2050.42 453.06">
  <defs>
    <style>
      .cls-1 {
        fill: #1b1464;
      }

      .cls-2 {
        fill: #939598;
      }
    </style>
  </defs>
  <g id="Layer_1-2" data-name="Layer 1">
    <g>
      <g>
        <path class="cls-1" d="M518.88,197.34c-20.57,0-36.69,16.33-36.69,37.18s16.12,37.18,36.69,37.18c6.65,0,13.03-1.7,18.52-4.94l10.38,10.38,7.02-7.02-9.56-9.57c6.68-6.93,10.33-16.11,10.33-26.04,0-20.85-16.12-37.18-36.69-37.18ZM518.88,262.04c-14.79,0-25.94-11.83-25.94-27.52s11.15-27.52,25.94-27.52,25.94,11.83,25.94,27.52c0,7.24-2.42,13.92-6.84,18.97l-10.71-10.81-7.02,7.02,9.81,9.81c-3.37,1.66-7.19,2.52-11.17,2.52Z"/>
        <path class="cls-1" d="M627.67,239.35c0,10.35-3.03,22.69-17.46,22.69-11.42,0-17.46-7.85-17.46-22.69v-40.83h-10.25v38.07c0,23.3,9.26,35.11,27.52,35.11s27.91-11.49,27.91-35.11v-38.07h-10.25v40.83Z"/>
        <path class="cls-1" d="M686.04,198.52l-27.77,72h10.77l5.92-15.68h28.29l5.23,15.68h11.33l-25.1-72h-8.67ZM700.1,245.17h-21.57l11.45-30.62,10.12,30.62Z"/>
        <polygon class="cls-1" points="789.04 251.06 750.03 198.52 742.39 198.52 742.39 270.52 752.25 270.52 752.25 218.07 791.16 270.52 798.9 270.52 798.9 198.52 789.04 198.52 789.04 251.06"/>
        <polygon class="cls-1" points="822.58 208.18 840.43 208.18 840.43 270.52 850.69 270.52 850.69 208.18 868.54 208.18 868.54 198.52 822.58 198.52 822.58 208.18"/>
        <rect class="cls-1" x="892.22" y="198.52" width="10.25" height="72"/>
        <polygon class="cls-1" points="926.15 208.18 944 208.18 944 270.52 954.25 270.52 954.25 208.18 972.11 208.18 972.11 198.52 926.15 198.52 926.15 208.18"/>
        <polygon class="cls-1" points="995.79 270.52 1038.88 270.52 1038.88 260.86 1006.04 260.86 1006.04 238.16 1038.88 238.16 1038.88 228.5 1006.04 228.5 1006.04 208.18 1038.88 208.18 1038.88 198.52 995.79 198.52 995.79 270.52"/>
        <path class="cls-1" d="M1116.61,257.73c-4.52,2.86-9.43,4.31-14.6,4.31-17.02,0-28.02-10.8-28.02-27.52s11.74-27.52,27.92-27.52c4.56,0,9.16,1.2,13.3,3.47l1.25.68,4.83-8.1-1.24-.76c-5.14-3.15-11.71-4.95-18.03-4.95-21.73,0-38.76,16.33-38.76,37.18s16.26,37.18,38.66,37.18c7.25,0,14.02-1.97,20.13-5.85l1.29-.82-5.51-8.06-1.2.76Z"/>
        <polygon class="cls-1" points="1194.63 198.52 1194.63 228.31 1157.74 228.31 1157.74 198.52 1147.49 198.52 1147.49 270.52 1157.74 270.52 1157.74 237.97 1194.63 237.97 1194.63 270.52 1204.88 270.52 1204.88 198.52 1194.63 198.52"/>
      </g>
      <g>
        <path class="cls-2" d="M1258.75,205.54v64.77h-7.58v-64.77h-18.55v-6.97h44.69v6.97h-18.55Z"/>
        <path class="cls-2" d="M1304.98,270.31v-71.74h41.71v6.97h-34.13v24.19h34.13v6.97h-34.13v26.65h34.13v6.97h-41.71Z"/>
        <path class="cls-2" d="M1433.81,265.7c-5.64,3.59-12.4,5.84-20.09,5.84-22.04,0-38.64-14.96-38.64-37.1s17.42-37.1,38.74-37.1c6.46,0,12.91,1.84,17.94,4.92l-3.48,5.84c-4.3-2.36-9.33-3.79-14.55-3.79-17.53,0-30.54,12.5-30.54,30.13s12.3,30.13,30.64,30.13c5.64,0,10.97-1.54,15.99-4.71l4,5.84Z"/>
        <path class="cls-2" d="M1511.6,270.31v-33.82h-41.41v33.82h-7.58v-71.74h7.58v30.95h41.41v-30.95h7.59v71.74h-7.59Z"/>
        <path class="cls-2" d="M1604.77,270.31l-42.74-57.6v57.6h-7.17v-71.74h5.64l42.84,57.7v-57.7h7.17v71.74h-5.74Z"/>
        <path class="cls-2" d="M1678.88,271.54c-20.7,0-36.59-16.6-36.59-37.1s15.89-37.1,36.59-37.1,36.59,16.6,36.59,37.1-15.89,37.1-36.59,37.1ZM1678.88,204.31c-16.4,0-28.49,13.22-28.49,30.13s12.09,30.13,28.49,30.13,28.49-13.22,28.49-30.13-12.09-30.13-28.49-30.13Z"/>
        <path class="cls-2" d="M1747.24,270.31v-71.74h7.58v64.78h31.98v6.97h-39.56Z"/>
        <path class="cls-2" d="M1842.05,271.54c-20.7,0-36.59-16.6-36.59-37.1s15.89-37.1,36.59-37.1,36.59,16.6,36.59,37.1-15.89,37.1-36.59,37.1ZM1842.05,204.31c-16.4,0-28.49,13.22-28.49,30.13s12.09,30.13,28.49,30.13,28.49-13.22,28.49-30.13-12.09-30.13-28.49-30.13Z"/>
        <path class="cls-2" d="M1947.41,238.54v-6.97h26.34v26.65c-6.56,8.1-17.01,13.32-28.59,13.32-22.04,0-38.64-14.96-38.64-37.1s17.42-37.1,38.74-37.1c10.56,0,20.19,4.92,26.65,12.09l-5.53,4.3c-5.02-5.53-12.91-9.43-21.22-9.43-17.53,0-30.54,12.5-30.54,30.13s12.3,30.13,30.65,30.13c8.3,0,15.58-2.87,20.91-7.89v-18.14h-18.76Z"/>
        <path class="cls-2" d="M2027.25,239.66v30.64h-7.58v-32.08l-21.93-39.66h9.33l17.01,32.08h.31l17.32-32.08h8.71l-23.16,41.1Z"/>
      </g>
      <path class="cls-1" d="M259.74,262.68c-14.54-44.83-1.22-94.62,33.76-126.2,37.94-34.25,87.93-40.1,129.26-23.22h0C380.86,40.66,304.84.1,226.65,0c14.84,11.55,27.32,26.75,35.91,45.3,24.9,53.79,7.19,118.28-41.71,151.78-59.48,40.74-139.82,21.68-175.17-39.56-8.14-14.11-13.13-29.16-15.22-44.36-39.13,67.85-42.03,154.12,0,226.81,5.97-44.3,36.03-84.76,84.71-100.53,44.86-14.54,94.69-1.18,126.25,33.86,50.34,55.87,39.24,137.83-15.48,179.76,38.71.14,77.97-9.58,113.9-30.33,35.95-20.75,64-49.9,83.23-83.51-63.67,26.35-140.13-5.03-163.33-76.54Z"/>
    </g>
  </g>
</svg>